<svg aria-hidden="true" style="position: absolute; width: 0; height: 0; overflow: hidden;" version="1.1" xmlns="http://www.w3.org/2000/svg" xmlns:xlink="http://www.w3.org/1999/xlink">
	<defs>
		<symbol id="icon-Group-503" viewBox="0 0 32 32">
			<path d="M31.895 9.445c-0.018-1.344-0.27-2.674-0.745-3.931-0.412-1.061-1.040-2.024-1.846-2.828s-1.77-1.432-2.833-1.843c-1.243-0.466-2.557-0.718-3.884-0.745-1.709-0.076-2.251-0.098-6.591-0.098s-4.896 0-6.593 0.098c-1.327 0.027-2.64 0.279-3.883 0.745-1.063 0.411-2.027 1.038-2.833 1.843s-1.434 1.768-1.846 2.828c-0.468 1.24-0.719 2.551-0.745 3.876-0.076 1.708-0.1 2.25-0.1 6.582s0 4.886 0.1 6.582c0.027 1.327 0.277 2.636 0.745 3.88 0.412 1.061 1.041 2.023 1.847 2.827s1.771 1.431 2.834 1.842c1.239 0.485 2.552 0.755 3.883 0.798 1.711 0.076 2.253 0.099 6.593 0.099s4.896 0 6.593-0.099c1.328-0.026 2.641-0.277 3.884-0.743 1.062-0.411 2.027-1.039 2.832-1.843s1.434-1.767 1.847-2.828c0.467-1.242 0.718-2.551 0.745-3.88 0.076-1.707 0.099-2.248 0.099-6.582-0.003-4.332-0.003-4.882-0.103-6.58zM15.986 24.164c-4.538 0-8.215-3.67-8.215-8.201s3.677-8.201 8.215-8.201c2.179 0 4.268 0.864 5.809 2.402s2.406 3.624 2.406 5.799c0 2.175-0.865 4.261-2.406 5.799s-3.63 2.402-5.809 2.402zM24.528 9.37c-0.252 0-0.501-0.049-0.733-0.145s-0.444-0.237-0.622-0.415c-0.178-0.178-0.319-0.389-0.415-0.621s-0.146-0.481-0.145-0.732c0-0.251 0.050-0.5 0.146-0.732s0.237-0.443 0.415-0.62c0.178-0.178 0.389-0.318 0.621-0.414s0.481-0.146 0.733-0.146c0.251 0 0.5 0.049 0.733 0.146s0.443 0.237 0.621 0.414c0.178 0.178 0.319 0.388 0.415 0.62s0.146 0.48 0.146 0.732c0 1.057-0.857 1.912-1.914 1.912z"></path>
			<path d="M15.986 21.29c2.947 0 5.336-2.385 5.336-5.327s-2.389-5.327-5.336-5.327c-2.947 0-5.336 2.385-5.336 5.327s2.389 5.327 5.336 5.327z"></path>
		</symbol>
		<symbol id="icon-Vector-1" viewBox="0 0 32 32">
			<path d="M16.003 0c-4.243 0.004-8.311 1.691-11.311 4.69s-4.688 7.065-4.694 11.307c-0.003 3.020 0.845 5.963 2.446 8.511l0.379 0.604-1.617 5.902 6.058-1.587 0.582 0.347c2.467 1.459 5.281 2.229 8.147 2.227h0.003c4.241-0.006 8.308-1.693 11.307-4.691s4.688-7.062 4.694-11.303c0.007-2.102-0.402-4.184-1.206-6.126s-1.984-3.706-3.474-5.189c-1.482-1.491-3.245-2.674-5.188-3.479s-4.025-1.217-6.128-1.212zM25.413 22.869c-0.402 1.125-2.324 2.146-3.246 2.284-1.011 0.174-2.049 0.109-3.031-0.19-0.931-0.288-1.846-0.626-2.741-1.012-4.827-2.082-7.977-6.937-8.221-7.261-0.238-0.321-1.96-2.609-1.96-4.973 0-2.368 1.241-3.531 1.681-4.013 0.162-0.183 0.359-0.33 0.58-0.433s0.461-0.159 0.705-0.165c0.321 0 0.64 0.003 0.922 0.016 0.296 0.013 0.691-0.112 1.080 0.826 0.402 0.964 1.366 3.328 1.485 3.569 0.119 0.238 0.199 0.52 0.042 0.842-0.161 0.325-0.238 0.521-0.482 0.803-0.238 0.283-0.505 0.627-0.72 0.845-0.241 0.238-0.492 0.498-0.212 0.98 0.283 0.479 1.247 2.056 2.674 3.332 1.838 1.639 3.391 2.143 3.869 2.387 0.482 0.238 0.762 0.202 1.044-0.122 0.28-0.325 1.202-1.404 1.523-1.883 0.321-0.482 0.64-0.402 1.083-0.244 0.44 0.164 2.806 1.324 3.285 1.565 0.476 0.238 0.8 0.36 0.922 0.562 0.116 0.199 0.116 1.16-0.283 2.284z"></path>
		</symbol>
		<symbol id="icon-Vector" viewBox="0 0 32 32">
			<path d="M16.010 0c-3.731-0.002-7.345 1.299-10.218 3.679s-4.824 5.689-5.515 9.355c-0.692 3.666-0.080 7.458 1.728 10.721s4.7 5.792 8.175 7.149c-0.14-1.266-0.268-3.212 0.054-4.594 0.292-1.25 1.876-7.954 1.876-7.954s-0.478-0.958-0.478-2.374c0-2.226 1.29-3.886 2.896-3.886 1.364 0 2.024 1.024 2.024 2.254 0 1.372-0.874 3.424-1.326 5.326-0.376 1.592 0.8 2.892 2.37 2.892 2.844 0 5.030-3 5.030-7.328 0-3.83-2.754-6.508-6.684-6.508-4.552 0-7.224 3.414-7.224 6.942 0 1.376 0.53 2.85 1.19 3.652 0.057 0.060 0.097 0.135 0.117 0.215s0.018 0.165-0.005 0.245c-0.122 0.504-0.392 1.592-0.444 1.814-0.070 0.292-0.232 0.354-0.536 0.214-2-0.93-3.248-3.852-3.248-6.2 0-5.046 3.668-9.68 10.572-9.68 5.55 0 9.864 3.954 9.864 9.24 0 5.514-3.478 9.952-8.302 9.952-1.622 0-3.146-0.842-3.668-1.838l-0.996 3.804c-0.362 1.39-1.338 3.132-1.99 4.194 2.2 0.68 4.521 0.878 6.804 0.579s4.475-1.087 6.426-2.311c1.951-1.224 3.614-2.854 4.877-4.78s2.095-4.101 2.44-6.378c0.345-2.277 0.194-4.601-0.442-6.814s-1.742-4.263-3.243-6.009c-1.501-1.746-3.361-3.148-5.453-4.11s-4.367-1.46-6.67-1.462z"></path>
		</symbol>
		<symbol id="icon-Group" viewBox="0 0 32 32">
			<path d="M32 16.102c0-8.891-7.163-16.098-15.998-16.098-8.839 0.002-16.002 7.207-16.002 16.1 0 8.033 5.851 14.692 13.498 15.9v-11.249h-4.059v-4.651h4.064v-3.55c0-4.034 2.39-6.261 6.043-6.261 1.752 0 3.582 0.314 3.582 0.314v3.96h-2.018c-1.986 0-2.606 1.242-2.606 2.516v3.020h4.435l-0.708 4.651h-3.73v11.249c7.647-1.208 13.498-7.867 13.498-15.9z"></path>
		</symbol>
		<symbol id="icon-burger-menu" viewBox="0 0 32 32">
			<path d="M4.799 8.001a1.6 1.6 0 0 1 1.6-1.6h19.2a1.6 1.6 0 0 1 0 3.2h-19.2a1.6 1.6 0 0 1-1.6-1.6zm0 8a1.6 1.6 0 0 1 1.6-1.6h19.2a1.6 1.6 0 0 1 0 3.2h-19.2a1.6 1.6 0 0 1-1.6-1.6zm0 8a1.6 1.6 0 0 1 1.6-1.6h19.2a1.6 1.6 0 0 1 0 3.2h-19.2a1.6 1.6 0 0 1-1.6-1.6z"/>
		</symbol>
	</defs>
</svg>